<?xml version="1.0" encoding="utf-8"?>
<!-- Generator: Adobe Illustrator 23.0.4, SVG Export Plug-In . SVG Version: 6.00 Build 0)  -->
<svg version="1.1" id="Layer_1" xmlns="http://www.w3.org/2000/svg" xmlns:xlink="http://www.w3.org/1999/xlink" x="0px" y="0px"
	 viewBox="0 0 32 32" style="enable-background:new 0 0 32 32;" xml:space="preserve">
<style type="text/css">
	.st0{fill:#008AD0;}
	.st1{fill:#333333;}
</style>
<g>
	<path class="st1" d="M8.402,30.079c-0.413,0-0.823-0.13-1.177-0.388c-0.637-0.465-0.937-1.234-0.782-2.007l1.471-7.355
		l-5.333-5.333c-0.517-0.517-0.71-1.273-0.506-1.974s0.774-1.234,1.486-1.392l6.782-1.507l3.908-7.034
		C14.604,2.453,15.274,2.059,16,2.059s1.396,0.394,1.748,1.028l3.908,7.034l6.782,1.507c0.712,0.158,1.282,0.691,1.486,1.392
		s0.011,1.457-0.506,1.974l-5.333,5.333l1.471,7.354c0.154,0.774-0.146,1.543-0.782,2.008c-0.638,0.466-1.461,0.517-2.15,0.133
		L16,26.144l-6.624,3.68C9.069,29.995,8.734,30.079,8.402,30.079z M16,24c0.167,0,0.335,0.042,0.485,0.126l7.109,3.95l-1.575-7.879
		c-0.065-0.328,0.037-0.667,0.273-0.903l5.712-5.712l-7.222-1.605c-0.279-0.062-0.519-0.24-0.657-0.49l-4.129-7.432l-4.123,7.432
		c-0.139,0.25-0.378,0.428-0.657,0.49l-7.222,1.605l5.712,5.712c0.236,0.236,0.339,0.575,0.273,0.903l-1.576,7.879l7.11-3.95
		C15.665,24.042,15.833,24,16,24z"/>
</g>
<g>
	<path class="st0" d="M9.979,16.324c-0.458,0-0.872-0.317-0.976-0.783c-0.119-0.539,0.221-1.073,0.76-1.193l3.203-0.712l2.159-3.886
		c0.268-0.482,0.877-0.657,1.359-0.388c0.483,0.268,0.657,0.877,0.389,1.36L14.497,15c-0.139,0.25-0.378,0.428-0.657,0.49
		l-3.643,0.81C10.124,16.316,10.052,16.324,9.979,16.324z"/>
</g>
</svg>
